<svg version="1.1" id="Layer_1" xmlns="http://www.w3.org/2000/svg" xmlns:xlink="http://www.w3.org/1999/xlink" x="0px" y="0px"
                width="200px" height="120px" viewBox="0 0 1000 600" enable-background="new 0 0 1000 600" xml:space="preserve">
                <g>
                    <path d="M483.167,149.722l52.436,32.474c0,0,87.68,116.17,93.241,123.732c3.907,17.047-16.028,40.418-41.709,23.584
                    l-91.482-119.638"/>
                    <path fill="#F1F2F2" d="M510.585,169.247c-0.678,5.118-9.049,13.464-18.58,10.978l5.878,28.129l20.126,9.185l1.424-20.934
                    l16.026,7.376l-1.004-19.963L510.585,169.247"/>
                    <polygon fill="#ED1C24" points="536.768,186.169 537.259,205.017 590.039,275.215 595.911,264.517 	"/>
                    <path fill="#FFF200" d="M588.595,276.121l-52.697-70.739l-14.968-6.77l-1.089,17.466l53.407,70.639
                    C577.947,286.355,587.641,279.894,588.595,276.121z"/>
                    <path fill="#009444" d="M519.089,219.455l-18.413-8.098l56.996,76.973c2.523,1.336,13.849-0.633,13.849-0.633L519.089,219.455z"/>
                    <path fill="#00AEEF" d="M597.087,266.895l10.02,13.093c-8.128,26.027-37.408,23.866-37.408,23.866l-10.798-13.771
                    C559.093,290.113,586.046,293.1,597.087,266.895z"/>
                </g>
                <g>
                    <path d="M640.665,139.948l-21.967,63.099c0,0-94.151,122.037-100.302,129.828c-15.212,8.609-40.007-5.838-28.386-36.99
                    l96.777-126.91"/>
                    <path fill="#F1F2F2" d="M626.817,173.621c-4.856,0.664-13.906-5.795-13.083-16.352l-25.189,13.615l-5.388,23.342l19.65-4.114
                    l-4.348,18.604l18.37-6.375L626.817,173.621"/>
                    <polygon fill="#ED1C24" points="615.192,205.317 597.777,210.861 540.853,284.394 551.696,287.632 	"/>
                    <path fill="#FFF200" d="M539.786,283.138l57.439-73.592l3.951-17.344l-16.379,3.536l-57.235,74.302
                    C528.63,274.821,536.136,283.156,539.786,283.138z"/>
                    <path fill="#009444" d="M581.546,195.86l4.646-21.274l-62.555,79.719c-0.847,2.976,2.745,14.205,2.745,14.205L581.546,195.86z"/>
                    <path fill="#00AEEF" d="M549.672,289.487l-10.59,13.898c-25.421-1.484-27.978-32.45-27.978-32.45l11.097-14.886
                    C522.205,256.256,523.632,285.028,549.672,289.487z"/>
                </g>
                <path fill="#BE1E2D" d="M55.5,333.833c-2.833-4-3.667-130.333,0-132.833s37.333-1.667,40,0s42.333,70.667,43,72s-2.5-68.5,0-72
                s28.333-2.667,31,0s3.573,130.92,0.406,133.257c-3.167,2.337-29.971,2.759-34.022,0.001c-4.051-2.758-48.295-82.796-48.295-82.796
                s5.244,80.038,1.578,82.871C85.5,337.167,58.333,337.833,55.5,333.833z"/>
                <path fill="#00AEEF" d="M300.5,235.542c1.375-1.417,15.333,0,15.333,0s-0.167-26.25,0-32.833c0.167-6.583,37.167-4.792,37.167,0
                c0,4.792-2.75,30.792,0,32.167s17.667-2.5,19.833,0c2.167,2.5,1.958,22.667,0,25.333c-1.958,2.667-17.958-1.667-19.333,0
                c-1.375,1.667-2.5,39.208,0,45.5c2.5,6.292,17.292,0.083,19.333,0.125c2.042,0.042,11.292,12.167,0,27.708
                c-43.458,9.083-48.667-5.167-48.667-5.167C309.5,320.75,315,260.438,315,260.438s-12.5,2.563-14.5-0.063
                S299.125,236.958,300.5,235.542z"/>
                <path fill="#00A651" d="M295.375,283.466c0,29.152-23.897,52.785-53.375,52.785s-53.375-23.633-53.375-52.785
                s23.897-52.785,53.375-52.785S295.375,254.314,295.375,283.466z M243.063,260.966c-12.806,0-23.188,10.409-23.188,23.25
                c0,12.841,10.381,23.25,23.188,23.25s23.188-10.409,23.188-23.25C266.25,271.376,255.869,260.966,243.063,260.966z"/>
                <path fill="#FFF200" d="M488.75,285.396c0,2.073-0.124,4.117-0.365,6.128l-3.066,12.305c-7.707,19.934-27.553,34.123-50.82,34.123
                c-29.961,0-54.25-23.53-54.25-52.556s24.289-52.556,54.25-52.556S488.75,256.37,488.75,285.396z M448.75,272.75
                c-1.25-26.25-31-17-27,0 M420.75,292.75c0,0-0.5,18.5,13.75,18.25s18.851-7.653,18.25-11c-0.958-5.333,31.96,6.081,32.57,3.829
                l3.005-12.064L420.75,292.75z"/>
            </svg>