<svg version="1.1" id="Layer_1" xmlns="http://www.w3.org/2000/svg" xmlns:xlink="http://www.w3.org/1999/xlink" x="0px" y="0px"
        width="300px" height="200px" viewBox="0 0 600 600" xml:space="preserve">
        <g>
            <path id="path1" d="M506.09,554.5l9.41-148.313c0,0,173.5-319.687,185-340.187c38-28,125.5-13,118.521,60.715L642,458.446"/>
            <path fill="#F1F2F2" d="M517.5,474c14-4.5,47,3.5,54,26.5l63.5-45l-4.75-53.125l-55.375,21.25l-3.625-42.375l-49.5,25.25L517.5,474"/>
            <polygon fill="#ED1C24" points="524,399.125 571.375,376.25 676.5,183.5 641,183.5"/>
            <path fill="#FFF200" d="M680.833,185.497l-106.62,193.202l3.688,39.44l46.062-17.94l105.37-194.585
            C721.833,196.114,691.789,183.14,680.833,185.497z"/>
            <path fill="#009444" d="M633.625,397.875l5.125,48.25l116.5-209.5c-0.125-6.875-21-28.5-21-28.5L633.625,397.875z"/>
            <path fill="#00AEEF" d="M645.418,178.263l19.361-36.322C742.526,128.941,778,193.25,778,193.25L758,232
            C757.806,231.559,727.696,171.204,645.418,178.263z"/>
            <rect x="639.453" y="266.469" transform="matrix(0.4949 -0.869 0.869 0.4949 123.221 769.9092)" fill="none" width="168.828" height="24.988"/>
            <text transform="matrix(0.6423 -1.1278 0.8689 0.4949 682.8242 352.7332)" fill="#F1F2F2" font-family="'FranklinGothic-Heavy'" font-size="20">NVHN</text>
        </g>
    </svg>